<?xml version="1.0" encoding="utf-8"?>
<!-- Generator: Adobe Illustrator 27.1.1, SVG Export Plug-In . SVG Version: 6.00 Build 0)  -->
<svg version="1.1" id="Capa_1" xmlns="http://www.w3.org/2000/svg" xmlns:xlink="http://www.w3.org/1999/xlink" x="0px" y="0px"
	 viewBox="0 0 512 512" style="enable-background:new 0 0 512 512;" xml:space="preserve">
<style type="text/css">
	.st0{fill:#F15A29;}
	.st1{fill:none;stroke:#FFFFFF;stroke-width:13.6783;stroke-linecap:round;stroke-linejoin:round;stroke-miterlimit:10;}
</style>
<g>
	<path class="st0" d="M467,512.5H44.4c-24.7,0-44.7-20-44.7-44.7V45.1c0-24.7,20-44.7,44.7-44.7H467c24.7,0,44.7,20,44.7,44.7v422.6
		C511.7,492.5,491.7,512.5,467,512.5z"/>
	<g>
		<path class="st1" d="M410.6,444.1H100.8c-18.1,0-32.8-14.7-32.8-32.8V101.5c0-18.1,14.7-32.8,32.8-32.8h309.8
			c18.1,0,32.8,14.7,32.8,32.8v309.8C443.4,429.5,428.7,444.1,410.6,444.1z"/>
		<path class="st1" d="M238.2,252.3L238.2,252.3c13.4-9,21.5-24.1,21.5-40.2v-90.3c0-7.4-6-13.3-13.3-13.3h-0.4
			c-7.4,0-13.3,6-13.3,13.3V171c0,6-4.8,10.8-10.8,10.8c-6,0-10.8-4.8-10.8-10.8v-49.3c0-7.4-6-13.3-13.3-13.3h-0.1
			c-7.4,0-13.3,6-13.3,13.3V171c0,6-4.8,10.8-10.8,10.8c-6,0-10.8-4.8-10.8-10.8v-49.3c0-7.4-6-13.3-13.3-13.3H149
			c-7.4,0-13.3,6-13.3,13.3V212c0,16.2,8.1,31.2,21.5,40.2l0,0c13.4,9,21.5,24.1,21.5,40.2v93.1c0,10.5,8.5,19,19,19h0
			c10.5,0,19-8.5,19-19v-93.1C216.6,276.3,224.7,261.2,238.2,252.3z"/>
		<path class="st1" d="M375.7,289.1H304V180.1c0-39.6,32.1-71.7,71.7-71.7h0V289.1z"/>
		<path class="st1" d="M357.8,404.6L357.8,404.6c-9.9,0-17.9-8-17.9-17.9v-97.5h35.9v97.5C375.7,396.5,367.7,404.6,357.8,404.6z"/>
	</g>
</g>
</svg>
