<?xml version="1.0" encoding="utf-8"?>
<!-- Generator: Adobe Illustrator 27.1.1, SVG Export Plug-In . SVG Version: 6.00 Build 0)  -->
<svg version="1.1" id="Capa_1" xmlns="http://www.w3.org/2000/svg" xmlns:xlink="http://www.w3.org/1999/xlink" x="0px" y="0px"
	 viewBox="0 0 512 512" style="enable-background:new 0 0 512 512;" xml:space="preserve">
<style type="text/css">
	.st0{fill:#FFFFFF;}
	.st1{fill:#FF2C00;}
</style>
<path class="st0" d="M489.9,509.7H22.1c-10.9,0-19.8-8.9-19.8-19.8V22.1c0-10.9,8.9-19.8,19.8-19.8h467.8c10.9,0,19.8,8.9,19.8,19.8
	v467.8C509.7,500.8,500.8,509.7,489.9,509.7z"/>
<g>
	<path class="st1" d="M348.2,156.8c-13.5-16.2-32.6-25.9-57.2-29.1c-6.4-0.6-12.6-0.9-18.6-0.9c-22.9,0-43.3,4.3-61,12.9
		c-22.5,11-40.8,26.1-55,45.3c-14.2,19.2-24.1,38.7-29.6,58.4c-5.6,19.7-8.3,37.4-8.3,53.1c0,4.1,0.2,8.2,0.5,12.2
		c1.5,19.3,6.4,33.9,14.6,44c8.2,10.1,18.4,15.1,30.4,15.1c3,0,8.8-0.1,7.9-3.2c-5.1-17.8-5-33.8-4.5-52.1c0.2-8.7,0.8-17.7,2.3-27
		c4.3-26,12.8-50.5,25.5-73.3c12.8-22.9,26.6-39.6,41.6-50.3c15-10.6,28.9-16,41.8-16c5.4,0,10.9,0.8,16.5,2.3
		c13.7,4.8,22.5,13.7,26.2,26.4c3.8,12.8,5.7,25.6,5.7,38.5c0,5.9-0.3,12-0.9,18.3c-2,20.5-6,41.3-11.9,62.6
		c-5.9,21.3-12.5,40.6-19.7,57.9c-1.8,4.2-3.5,8.2-5.2,11.9c-7.6-29.9-20.8-61.9-28.7-90.8c2.5-0.4,6.9,6.4,9.2,6.8
		c12.3,2.6,17.6-8.2,15.3-18.9c-0.7-3-5.3-8.7-2.1-10.8c3.1-1,6.5-0.8,9.7-0.6c8.8,0.5,28,7.5,12.3-7c-2.3-2.1-10.1-6.5-11-8.2
		c-2-4.1-0.7-17.2-5.2-22.9l-5.8,0c-0.2-2.4,1-10.8-2-11.4l-5.8,3.8l-1.9-12.8c-4.7-4-4.6,3.7-7.1,5.1l-1.3-12.7
		c-4.8-0.1-5,6.7-5.2,10.2c-3.8-1.2-4-4.3-5.2-6.9c-4.4-9-6,3.6-8.3,4.4c-4,1.3-4.1-4.7-7.7-4.7c-6.9,0.9-9.4,24.7,0.7,25.7
		c-7.3,5-23,14.4-29.4,23.2c-36.5,49.4-39.4,98.8-22.1,143.6c5.2,13.4,10.9,22.8,18.6,29.1c0.1,0.2,0.3,0.4,0.4,0.6
		c-4.4-1.5-8.4-2.3-12.3-2.3c-2.5,0-4.8,0.3-7.1,0.9c-6,1.5-11.2,6.3-15.6,14.2c-0.8,1.5-1.2,2.8-1.2,3.9c0,0.7,0.2,1.3,0.5,1.8
		c0.7,1.2,2,1.9,3.8,2.3c1.8,0.4,3.6,0.6,5.4,0.7c0.8,0,1.5,0.1,2.1,0.2c8.7,1.1,17.2,4.3,25.4,9.7c8.2,5.4,16.6,11.7,25.1,18.9
		c9.4,8,19.7,15.6,30.7,22.8c11,7.1,23.4,12.1,37.1,14.8c3.5,0.5,6.8,0.7,9.9,0.7c9.1,0,16.1-2.4,21.1-7.1
		c6.3-6.1,9.4-14.3,9.4-24.5v-1.1c-0.2-10.8-3.3-21.4-9.2-32.1c-1.2-1.9-2.2-3-2.9-3.2c-0.8-0.2-1.4-0.4-1.9-0.4
		c-0.6,0-1.2,0.1-1.8,0.4c-0.9,0.6-1.8,1.3-2.5,2.2c-0.7,0.9-1.2,1.6-1.4,2c-3.7,7.1-8.3,10.8-13.8,11.2c-5.6,0.4-8.9,0.5-10.1,0.5
		c-9.2,0-19.7-2.2-31.5-6.6c-3.9-1.4-7.9-3.2-11.9-5.3c2.1,0.2,4.2,0.3,6.4,0.3c18,0.3,34.3-5.9,49-17.6
		c16.4-13.1,30.2-30.8,41.2-52.9c11.1-22.2,18.2-43.1,21.5-62.7s4.9-35.9,4.9-48.8c0-11.8-0.9-23.4-2.8-34.8
		C370.5,193,361.8,173,348.2,156.8"/>
	<path class="st1" d="M357.7,55.3c6.1,1.4,12.2-2.5,13.5-8.6c1.4-6.1-2.5-12.2-8.6-13.5c-6.1-1.4-12.2,2.5-13.5,8.6
		C347.8,47.8,351.6,53.9,357.7,55.3"/>
	<path class="st1" d="M279.7,37c6.1,1.4,12.2-2.5,13.5-8.6c1.4-6.1-2.5-12.1-8.6-13.5c-6.1-1.4-12.2,2.5-13.5,8.6
		C269.8,29.6,273.6,35.6,279.7,37"/>
	<path class="st1" d="M243.7,62.6c0.9-4.2-1.7-8.3-5.8-9.2c-4.2-0.9-8.3,1.7-9.2,5.8c-0.9,4.2,1.7,8.3,5.8,9.2
		S242.8,66.8,243.7,62.6"/>
	<path class="st1" d="M387.5,86.7c-4.2-0.9-8.3,1.7-9.2,5.8c-0.9,4.2,1.7,8.3,5.8,9.2c4.2,0.9,8.3-1.7,9.2-5.8
		S391.7,87.6,387.5,86.7"/>
	<path class="st1" d="M365.2,105.1c4.9-9.5,8.9-27.2,3.4-39.8c-3.4-1.6-19.6,0.5-28.3,6.6c3.1-13.9-9.2-41.8-17.1-47.6
		c-9.7,1.9-32.7,21.9-35.8,35.8C282,50.8,268.2,42,264.5,42c-10.4,9-14.3,26.8-13.9,37.4c-4.8-3.5-12.7-5.3-15.5-5.1
		c-2,5.9-5.3,22.4,5.1,36.6c-2.7,0.7-3.9,4-2.1,6.3c0,0,0,0.1,0.1,0.1c0.8,1,2.1,1.5,3.4,1.4c7.2-0.8,14.5-1.2,22.1-1.2
		c7.6,0,15.6,0.4,23.6,1.1c26.2,3.4,47.9,12.5,64.8,27c1,0.9,2.5,1.2,3.8,0.8l0.1,0c2.8-0.9,3.6-4.5,1.5-6.5
		c18.5-7.6,23.3-26.1,24-32.8C378.9,105.8,371,104,365.2,105.1 M247.4,110.3c-4.3-6.1-7.9-14.4-5.1-23c10.5,3.1,16.8,13.6,19.1,22.4
		C256.7,109.8,252,110,247.4,110.3 M284.1,110.5c-5.5-0.4-10.9-0.7-16.2-0.8c-2.7-4.7-6.7-12.8-7.9-22.5
		c-1.8-14.4,7.9-26.3,7.9-26.3C274.8,65.7,289.4,74.1,284.1,110.5 M305.9,114.1c-1.8-0.4-3.7-0.9-5.6-1.3c-2.2-4.3-8.1-18.1-5-34.7
		c3.2-17.1,13.1-25.5,22.1-28.3c6.9,6.4,12.3,18.2,7.9,35C321,101.3,309.6,111.2,305.9,114.1 M321.6,118.9
		c10.7-35.3,27.5-36.6,35.8-37.9c0,0,3.7,14.8-4.1,27.1c-5.4,8.5-12.7,14.3-17.2,17.3C331.5,123,326.7,120.8,321.6,118.9
		 M352.3,135.7c-3.3-2.6-6.8-5-10.5-7.2c5.7-7.2,16.3-14.6,27.5-12.8C368,126,359.5,132.2,352.3,135.7"/>
</g>
</svg>
